<?xml version="1.0" encoding="utf-8"?>
<!-- Svg Vector Icons : http://www.onlinewebfonts.com/icon -->
<!DOCTYPE svg PUBLIC "-//W3C//DTD SVG 1.1//EN" "http://www.w3.org/Graphics/SVG/1.1/DTD/svg11.dtd">
<svg version="1.1" xmlns="http://www.w3.org/2000/svg" xmlns:xlink="http://www.w3.org/1999/xlink" x="0px" y="0px" viewBox="0 0 256 256" enable-background="new 0 0 256 256" xml:space="preserve">
<metadata> Svg Vector Icons : http://www.onlinewebfonts.com/icon </metadata>
<g><g><g><path fill="#000000" d="M126.3,12.7l-8.4,2.6l-2.1,3.9c-2.2,4.1-4.4,6.7-6.4,7.2c-2,0.5-4.1-0.2-5.8-1.9c-1.5-1.5-1.6-1.8-1.6-4.7c0-1.7,0.1-4,0.4-5.1c0.4-2.2,0-2.4-2.9-1.3c-1.5,0.5-15.1,9.7-15.7,10.6c-0.1,0.2-0.6,2.4-1.1,5c-0.9,5.1-1.9,7.1-4.4,8.4c-2.1,1.2-4.5,0.7-6.6-1.2c-1.7-1.5-2.4-3-2.8-7c-0.1-1.4-0.5-2.7-0.6-2.9c-0.9-0.6-4.2,2.8-9.1,9.1l-5.3,7l0.3,3c0.2,1.7,0.5,4.1,0.6,5.6c0.5,4.9-2.2,8-6.5,7.7c-3-0.3-4.4-1.4-6.5-5.5l-1.9-3.6l-1.4,1.5c-1.1,1.1-2,3.3-3.7,8.2c-1.3,3.7-2.6,7.6-3,8.6l-0.7,1.9l2.3,4.8c1.2,2.6,2.3,5.3,2.3,6c0,3.6-2.8,6.3-6.5,6.3c-2.4,0-3.4-0.6-6.8-3.8l-2.4-2.4l-0.9,2.1c-0.8,1.8-1,3-1,11v8.9l3.6,4.1c3.8,4.2,4.7,6,4,8.6c-0.5,2-3,4.1-5.3,4.5c-1.8,0.3-2.4,0.1-5.9-1.5c-3.7-1.8-3.8-1.8-4.1-0.9c-0.5,1.9-0.3,2.9,2.3,11.7l2.6,8.9l4.2,2.2c4.2,2.3,6.5,4.4,7.1,6.4c0.5,2-0.2,4.1-1.9,5.8c-1.5,1.5-1.8,1.6-4.7,1.6c-1.7,0-4-0.1-5-0.4c-2.3-0.4-2.4,0-1.3,2.9c0.5,1.5,9.7,15.1,10.6,15.7c0.2,0.1,2.4,0.6,5,1.1c5.1,0.9,7.1,1.9,8.4,4.4c1.2,2.1,0.7,4.5-1.2,6.6c-1.5,1.7-3,2.4-7,2.8c-1.4,0.1-2.7,0.4-2.8,0.6c-0.5,0.9,2.8,4.2,8.6,8.7c3.6,2.8,6.9,5.2,7.2,5.4c0.3,0.2,3,0.1,6-0.2c5-0.5,5.5-0.5,7.2,0.3c2.5,1.2,3.6,3.1,3.4,5.9c-0.3,3-1.4,4.4-5.5,6.5l-3.6,1.9l1.5,1.4c1.1,1,3.4,2.1,8.2,3.7c3.7,1.3,7.6,2.6,8.6,3l1.9,0.7l4.8-2.3c2.6-1.2,5.3-2.3,6-2.3c3.6,0,6.3,2.8,6.3,6.5c0,2.4-0.6,3.4-3.8,6.8l-2.4,2.4l2.1,0.9c1.8,0.8,3,1,11,1l9,0l4-3.6c4.1-3.8,5.9-4.6,8.5-4c2,0.5,4.1,3,4.5,5.3c0.3,1.8,0.1,2.4-1.5,5.9c-1.8,3.7-1.8,3.8-0.9,4.1c1.9,0.5,3.3,0.2,11.9-2.4l8.8-2.7l0.9-1.8c2.6-5.2,4.2-7.6,6-8.5c2.6-1.5,5-1.1,7.2,1.1c1.6,1.6,1.7,1.8,1.7,4.8c0,1.7-0.1,4-0.4,5c-0.4,2.3,0,2.4,2.9,1.3c1.5-0.5,15.1-9.7,15.7-10.6c0.1-0.2,0.6-2.4,1.1-5c0.9-5.1,1.9-7.1,4.4-8.4c2.1-1.2,4.5-0.7,6.6,1.2c1.7,1.5,2.4,3,2.8,7c0.1,1.4,0.4,2.7,0.6,2.8c0.9,0.6,4.3-2.8,9.1-9l5.3-7.1l-0.3-3c-0.2-1.7-0.5-4.1-0.6-5.6c-0.5-4.9,2.2-8,6.5-7.7c3,0.3,4.4,1.4,6.5,5.5l1.9,3.5l1.4-1.5c1.1-1.2,2.2-3.6,4.4-10.2l3-8.6l-2.3-4.7c-1.3-2.6-2.3-5.3-2.3-6c0-3.6,2.7-6.4,6.4-6.4c2.6,0,3.5,0.5,6.6,3.6l2.6,2.6l0.9-2.1c0.8-1.8,1-3,1-11l0-9l-3.6-4c-3.7-4.1-4.6-5.9-4-8.3c0.6-2.6,3.7-4.9,6.4-4.9c0.6,0,2.8,0.8,4.8,1.8c3.7,1.8,3.7,1.8,4,0.8c0.5-1.9,0.3-2.9-2.4-11.8l-2.6-8.9l-4.1-2.2c-4.2-2.2-6.5-4.3-7.1-6.3c-0.5-2,0.2-4.1,1.9-5.8c1.5-1.5,1.8-1.6,4.7-1.6c1.7,0,4,0.1,5.1,0.4c2.2,0.4,2.4,0,1.3-3c-0.6-1.5-9.6-15.1-10.6-15.7c-0.2-0.1-2.4-0.6-5-1.1c-5.1-0.9-7.1-1.9-8.4-4.4c-1.2-2.1-0.7-4.5,1.2-6.6c1.5-1.7,3-2.4,7-2.8c1.4-0.1,2.7-0.5,2.9-0.6c0.6-0.9-2.7-4.1-8.6-8.7c-3.6-2.7-6.9-5.2-7.2-5.3c-0.3-0.2-3-0.1-6,0.2c-5,0.5-5.5,0.5-7.2-0.3c-2.5-1.2-3.6-3.1-3.4-5.9c0.3-3,1.4-4.4,5.5-6.5l3.6-1.9l-1.5-1.4c-1.1-1-3.3-2-7.7-3.6c-3.4-1.2-7.3-2.5-8.6-3l-2.4-0.8l-4.8,2.3c-2.6,1.2-5.3,2.3-6,2.3c-3.6,0-6.3-2.8-6.3-6.5c0-2.4,0.6-3.4,3.8-6.8l2.4-2.4l-2.1-0.9c-1.8-0.8-3-1-11-1l-9,0l-4,3.6c-4.1,3.8-5.9,4.6-8.5,4c-2-0.5-4.1-3-4.5-5.3c-0.3-1.8-0.1-2.4,1.5-5.9c1.8-3.7,1.8-3.8,0.9-4.1C136.5,9.7,134.5,10.1,126.3,12.7z M130.6,36.6c1.3,1,2,2.5,2,4c0,1.8-2.7,4.4-4.6,4.4c-1.9,0-4.6-2.6-4.6-4.3c0-1.5,1.1-3.8,2.2-4.4C126.8,35.5,129.5,35.7,130.6,36.6z M132.2,105.9c3.8,0.7,8.9,3.4,11.7,6.2c3.1,3.1,5.6,8.1,6.3,12.6c1.9,12.1-6.7,23.7-18.9,25.5c-14.6,2.3-27.7-10.7-25.6-25.3C107.6,112.2,119.6,103.5,132.2,105.9z M43.4,124.9c1.2,1.1,1.6,2,1.6,3c0,1.9-2.6,4.6-4.4,4.6c-2.6,0-4.8-2.1-4.8-4.5c0-2,0.6-3.1,2.2-4C40.1,123,41.7,123.2,43.4,124.9z M217.9,124.1c4.2,2.2,2.3,8.5-2.5,8.5c-1.7,0-4.4-2.7-4.4-4.4C211,124.5,214.6,122.4,217.9,124.1z M131,212.6c1.8,1.8,2,3.2,0.9,5.3c-0.8,1.6-2,2.3-3.9,2.3c-1.9,0-3.1-0.7-3.9-2.3c-1.1-2.1-0.9-3.6,0.9-5.3c1.2-1.2,2-1.6,3-1.6C129.1,211,129.9,211.4,131,212.6z"/></g></g></g>
</svg>